<?xml version="1.0" encoding="UTF-8"?>
<svg id="Layer_2" data-name="Layer 2" xmlns="http://www.w3.org/2000/svg" viewBox="0 0 147.51 137.96">
  <defs>
    <style>
      .cls-1 {
        fill: #ea5848;
        stroke-width: 0px;
      }
    </style>
  </defs>
  <g id="Logo">
    <path class="cls-1" d="M130.22,62.89c-5.94,3.85-13.02,6.09-20.62,6.09,7.6,0,14.68,2.24,20.62,6.09,10.41,6.76,17.29,18.48,17.29,31.82v11.14c0,2.79-.57,5.44-1.62,7.85-3.04,7.1-10.09,12.08-18.31,12.08h-33.89c-11.01,0-19.93-8.93-19.93-19.93,0,11-8.93,19.93-19.94,19.93H19.93c-8.22,0-15.27-4.98-18.31-12.08-1.05-2.41-1.62-5.06-1.62-7.85v-11.14c0-13.34,6.88-25.06,17.29-31.82,5.94-3.85,13.02-6.09,20.62-6.09-7.6,0-14.68-2.24-20.62-6.09C6.88,56.13,0,44.41,0,31.07v-11.14C0,13.09,3.45,7.04,8.72,3.45,11.91,1.27,15.77,0,19.93,0h33.89c11.01,0,19.94,8.93,19.94,19.93,0-11,8.92-19.93,19.93-19.93h33.89c4.16,0,8.02,1.27,11.21,3.45,5.27,3.59,8.72,9.64,8.72,16.48v11.14c0,13.34-6.88,25.06-17.29,31.82Z"/>
  </g>
</svg>