<?xml version="1.0" encoding="UTF-8"?>
<svg id="Layer_2" data-name="Layer 2" xmlns="http://www.w3.org/2000/svg" viewBox="0 0 619.32 583.98">
  <defs>
    <style>
      .cls-1 {
        fill: #fff;
        stroke-width: 0px;
      }
    </style>
  </defs>
  <g id="Livello_1" data-name="Livello 1">
    <path class="cls-1" d="M619.32,151.84v-41.18c0-61.04-49.61-110.65-110.65-110.65h-125.33c-28.25,0-54.09,10.65-73.68,28.17C290.1,10.65,264.26,0,235.98,0h-125.29C49.69,0,0,49.61,0,110.65v41.18c0,56.97,27.06,107.73,68.95,140.15C27.06,324.41,0,375.17,0,432.14v41.15c0,61.04,49.69,110.69,110.69,110.69h125.29c28.28,0,54.12-10.68,73.68-28.17,19.59,17.49,45.44,28.17,73.68,28.17h125.33c61.04,0,110.65-49.65,110.65-110.69v-41.15c0-56.97-27.03-107.73-68.91-140.15,41.89-32.42,68.91-83.18,68.91-140.15ZM442.2,291.99c77.42,0,140.15,62.74,140.15,140.15v41.15c0,40.7-32.98,73.72-73.68,73.72h-125.33c-40.67,0-73.68-33.01-73.68-73.72,0,40.7-32.98,73.72-73.68,73.72h-125.29c-40.7,0-73.72-33.01-73.72-73.72v-41.15c0-77.42,62.78-140.15,140.19-140.15-77.42,0-140.19-62.78-140.19-140.15v-41.18c0-40.7,33.01-73.68,73.72-73.68h125.29c40.7,0,73.68,32.98,73.68,73.68,0-40.7,33.01-73.68,73.68-73.68h125.33c40.7,0,73.68,32.98,73.68,73.68v41.18c0,77.38-62.74,140.15-140.15,140.15Z"/>
  </g>
</svg>